#!OML:ASF E:\Style4\Style4.ASF
:FULLY-SPECIFIED
:DEGREES
2213
root 0.553866 17.1345 -3.15742 13.3009 3.41069 4.61498
lowerback 21.5533 2.679 3.79755
upperback 12.2198 4.1788 3.12637
thorax 1.3372 2.18249 0.37285
lowerneck 3.19542 -18.0395 -3.7775
upperneck 24.0567 -25.0239 5.32466
head 8.22353 -11.5945 0.658155
rclavicle -3.18055e-015 -3.97569e-014
rhumerus 66.0471 -0.993899 -1163.16
rradius 13.9766
rwrist 1123.02
rhand -15.6939 21.1594
rfingers 7.12502
rthumb 10.4955 -8.55855
lclavicle -3.18055e-015 -3.97569e-014
lhumerus 70.9832 18.1654 27.5226
lradius 121.985
lwrist 44.6173
lhand -12.1063 26.495
lfingers 7.12502
lthumb 13.9545 56.0067
rfemur -46.0424 -11.453 14.9637
rtibia 48.5042
rfoot -14.0993 -14.3662
rtoes -9.33139
lfemur -44.2772 0.677227 -26.3964
ltibia 43.7042
lfoot -12.982 6.25893
ltoes -10.3551
2214
root 0.553411 17.1307 -3.15426 13.256 3.38377 4.63867
lowerback 21.5624 2.69185 3.78196
upperback 12.228 4.19233 3.11242
thorax 1.34192 2.18912 0.364032
lowerneck 3.17148 -18.049 -3.90006
upperneck 24.1466 -25.0617 5.41045
head 8.28886 -11.6092 0.685121
rclavicle -7.15625e-014 1.11319e-014
rhumerus 65.9682 -0.667762 -1162.15
rradius 14.2398
rwrist 1122.25
rhand -16.8794 21.3591
rfingers 7.12502
rthumb 9.3517 -8.41349
lclavicle -7.15625e-014 1.11319e-014
lhumerus 71.0183 18.1602 27.571
lradius 121.91
lwrist 44.5784
lhand -11.8855 26.589
lfingers 7.12502
lthumb 14.1674 56.086
rfemur -46.0476 -11.4667 14.9414
rtibia 48.6319
rfoot -14.1551 -14.3528
rtoes -9.44453
lfemur -44.2615 0.692987 -26.4224
ltibia 43.8024
lfoot -12.9988 6.24622
ltoes -10.3161
2215
root 0.552846 17.1252 -3.15156 13.235 3.39526 4.70236
lowerback 21.5496 2.67552 3.71896
upperback 12.2315 4.15981 3.08694
thorax 1.34817 2.1711 0.379081
lowerneck 3.08973 -18.0328 -3.92328
upperneck 24.2858 -25.0445 5.36196
head 8.34595 -11.597 0.660532
rclavicle -4.45278e-014 -1.43125e-014
rhumerus 65.8879 -0.2593 -1161.11
rradius 14.5202
rwrist 1121.42
rhand -18.0774 21.5608
rfingers 7.12502
rthumb 8.19564 -8.26024
lclavicle -4.45278e-014 -1.43125e-014
lhumerus 70.9714 18.1535 27.525
lradius 121.82
lwrist 44.5787
lhand -11.8687 26.4442
lfingers 7.12502
lthumb 14.1836 55.9399
rfemur -46.0893 -11.5262 14.8913
rtibia 48.7898
rfoot -14.2679 -14.3207
rtoes -9.48959
lfemur -44.2936 0.674403 -26.4874
ltibia 43.9361
lfoot -13.0544 6.2968
ltoes -10.7864
2216
root 0.550871 17.116 -3.14789 13.2011 3.4279 4.72603
lowerback 21.531 2.66033 3.66571
upperback 12.2338 4.1307 3.08081
thorax 1.35544 2.15455 0.408822
lowerneck 3.05495 -18.005 -3.89215
upperneck 24.3918 -25.0037 5.29339
head 8.37251 -11.5745 0.633281
rclavicle 1.09729e-013 5.56597e-014
rhumerus 65.7842 -0.0168181 -1160.65
rradius 14.7129
rwrist 1121.14
rhand -19.2163 21.9012
rfingers 7.12502
rthumb 7.0964 -7.95982
lclavicle 1.09729e-013 5.56597e-014
lhumerus 70.8636 18.1759 27.4004
lradius 121.918
lwrist 44.6957
lhand -12.0549 26.6861
lfingers 7.12502
lthumb 14.0041 56.1944
rfemur -46.1302 -11.5969 14.883
rtibia 48.9798
rfoot -14.4396 -14.2574
rtoes -8.99087
lfemur -44.3495 0.649698 -26.505
ltibia 44.1279
lfoot -13.229 6.30752
ltoes -10.8148
2217
root 0.547135 17.1047 -3.14437 13.1138 3.45438 4.63496
lowerback 21.5848 2.67371 3.75796
upperback 12.2693 4.16496 3.08438
thorax 1.37631 2.17675 0.353714
lowerneck 2.91145 -18.0359 -3.81816
upperneck 24.5289 -25.0573 5.2677
head 8.43442 -11.5842 0.592008
rclavicle -6.36111e-015 -1.43125e-014
rhumerus 65.7459 -0.0456121 -1160.61
rradius 14.7803
rwrist 1121.25
rhand -20.2577 22.326
rfingers 7.12502
rthumb 6.09106 -7.56645
lclavicle -6.36111e-015 -1.43125e-014
lhumerus 70.9003 18.1878 27.2912
lradius 122.133
lwrist 44.844
lhand -12.3096 27.403
lfingers 7.12502
lthumb 13.7586 56.9281
rfemur -46.1391 -11.6112 14.991
rtibia 49.1844
rfoot -14.5266 -14.2857
rtoes -9.10555
lfemur -44.4079 0.667522 -26.3933
ltibia 44.3837
lfoot -13.3062 6.24703
ltoes -10.619
2218
root 0.544137 17.0872 -3.14305 13.0118 3.47063 4.55372
lowerback 21.6746 2.6731 3.83169
upperback 12.2885 4.18066 3.08778
thorax 1.35956 2.18803 0.309643
lowerneck 2.828 -18.0643 -3.75007
upperneck 24.6235 -25.0877 5.17473
head 8.46137 -11.5932 0.542382
rclavicle -6.67916e-014 3.02153e-014
rhumerus 65.6876 -0.0195479 -1160.53
rradius 14.7929
rwrist 1121.25
rhand -21.2703 22.7875
rfingers 7.12502
rthumb 5.1134 -7.13076
lclavicle -6.67916e-014 3.02153e-014
lhumerus 70.8967 18.1908 27.2383
lradius 122.073
lwrist 44.822
lhand -12.2801 27.3965
lfingers 7.12502
lthumb 13.787 56.9196
rfemur -46.1749 -11.6005 15.0694
rtibia 49.426
rfoot -14.6111 -14.313
rtoes -9.20741
lfemur -44.4787 0.691002 -26.2928
ltibia 44.6803
lfoot -13.3572 6.12175
ltoes -9.87171
2219
root 0.541735 17.0695 -3.14321 12.9098 3.48688 4.50277
lowerback 21.7738 2.6638 3.87463
upperback 12.2866 4.18159 3.09286
thorax 1.31189 2.1897 0.285792
lowerneck 2.85261 -18.0768 -3.75262
upperneck 24.6711 -25.0932 5.10749
head 8.46521 -11.5997 0.523221
rclavicle 2.54444e-014 2.70347e-014
rhumerus 65.5807 -0.0463264 -1160.71
rradius 14.7513
rwrist 1121.47
rhand -22.176 23.3753
rfingers 7.12502
rthumb 4.23878 -6.56224
lclavicle 2.54444e-014 2.70347e-014
lhumerus 70.8449 18.1078 27.1922
lradius 121.824
lwrist 44.5529
lhand -11.961 26.7953
lfingers 7.12502
lthumb 14.0946 56.2973
rfemur -46.2309 -11.6071 15.1155
rtibia 49.6926
rfoot -14.7576 -14.2837
rtoes -9.37559
lfemur -44.5619 0.72497 -26.234
ltibia 44.9953
lfoot -13.5426 6.06875
ltoes -9.56753
2220
root 0.540969 17.0541 -3.14237 12.8245 3.48324 4.57018
lowerback 21.8103 2.67395 3.80519
upperback 12.3216 4.18287 3.07634
thorax 1.32839 2.1883 0.306401
lowerneck 2.89218 -18.0776 -3.86658
upperneck 24.6975 -25.1136 5.20554
head 8.49786 -11.6097 0.563989
rclavicle 4.92986e-014 -1.43125e-014
rhumerus 65.5147 -0.127783 -1161.11
rradius 14.6356
rwrist 1121.8
rhand -23.1522 23.7922
rfingers 7.12502
rthumb 3.29611 -6.16208
lclavicle 4.92986e-014 -1.43125e-014
lhumerus 70.8455 18.094 27.1624
lradius 121.862
lwrist 44.6285
lhand -12.0709 26.9682
lfingers 7.12502
lthumb 13.9886 56.4776
rfemur -46.3171 -11.6785 15.0495
rtibia 50.0029
rfoot -14.8757 -14.2659
rtoes -9.48109
lfemur -44.6407 0.727547 -26.31
ltibia 45.3112
lfoot -13.7356 6.07273
ltoes -9.59562
2221
root 0.539534 17.0398 -3.13982 12.7208 3.49891 4.59827
lowerback 21.8352 2.66752 3.74333
upperback 12.375 4.16342 3.08193
thorax 1.36948 2.17664 0.351797
lowerneck 2.86988 -18.0799 -3.89279
upperneck 24.7697 -25.1123 5.15867
head 8.52362 -11.6102 0.547736
rclavicle 7.95139e-015 6.36111e-015
rhumerus 65.3803 0.0184124 -1160.97
rradius 14.5653
rwrist 1121.61
rhand -24.2998 24.0309
rfingers 7.12502
rthumb 2.18783 -5.93763
lclavicle 7.95139e-015 6.36111e-015
lhumerus 70.8643 18.1534 27.1709
lradius 122.183
lwrist 45.0242
lhand -12.3799 28.152
lfingers 7.12502
lthumb 13.6909 57.6816
rfemur -46.3743 -11.736 15.0191
rtibia 50.3331
rfoot -14.99 -14.2723
rtoes -9.10428
lfemur -44.6897 0.684017 -26.3261
ltibia 45.6398
lfoot -13.8624 6.05321
ltoes -9.41743
2222
root 0.536753 17.0202 -3.13721 12.6357 3.49632 4.65744
lowerback 21.8787 2.68157 3.63866
upperback 12.3854 4.16503 3.07035
thorax 1.35202 2.17261 0.395642
lowerneck 2.97159 -18.0874 -3.77617
upperneck 24.6922 -25.0848 5.02208
head 8.44355 -11.6068 0.513467
rclavicle -1.43125e-014 6.36111e-015
rhumerus 65.1761 0.0313839 -1161.08
rradius 14.383
rwrist 1121.78
rhand -25.4901 24.4709
rfingers 7.12502
rthumb 1.03821 -5.50634
lclavicle -1.43125e-014 6.36111e-015
lhumerus 70.8596 18.1171 27.1889
lradius 122.504
lwrist 45.2373
lhand -12.4959 29.2609
lfingers 7.12502
lthumb 13.5791 58.7981
rfemur -46.4871 -11.8139 14.975
rtibia 50.6839
rfoot -15.0517 -14.2872
rtoes -9.27869
lfemur -44.7774 0.695817 -26.3837
ltibia 45.9861
lfoot -14.0033 5.99439
ltoes -9.18639
2223
root 0.533944 16.9999 -3.13442 12.5521 3.47572 4.65252
lowerback 21.9346 2.70941 3.64652
upperback 12.4011 4.20354 3.04668
thorax 1.3453 2.19315 0.356488
lowerneck 2.9277 -18.1238 -3.67989
upperneck 24.7756 -25.1184 4.90578
head 8.45325 -11.6186 0.458693
rclavicle -9.54166e-015 7.95139e-015
rhumerus 64.9851 -0.187448 -1161.65
rradius 14.1377
rwrist 1122.43
rhand -26.5311 25.0303
rfingers 7.12502
rthumb 0.0327973 -4.94949
lclavicle -9.54166e-015 7.95139e-015
lhumerus 70.8911 18.0429 27.1565
lradius 122.123
lwrist 44.9443
lhand -12.1357 28.3654
lfingers 7.12502
lthumb 13.9262 57.8791
rfemur -46.6539 -11.8635 15.0101
rtibia 51.0294
rfoot -14.996 -14.3749
rtoes -10.4016
lfemur -44.9052 0.799672 -26.4049
ltibia 46.3567
lfoot -14.1811 5.997
ltoes -9.78146
